<svg xmlns="http://www.w3.org/2000/svg" viewBox="0 0 26.02 23.04"><defs><style>.cls-1{fill:#231815;}.cls-2{fill:#13ae67;}.cls-3{fill:none;stroke:#094;stroke-width:0.5px;}</style></defs><g id="圖層_2" data-name="圖層 2"><g id="圖層_1-2" data-name="圖層 1"><path class="cls-1" d="M11.83,16.35c-2.44,4-9.37,3.18-9.57-.84-.1-1.71,1.16-3.24,2.93-2.4a4.41,4.41,0,0,0,3,.15,3.82,3.82,0,0,0,1.5-.84A8.83,8.83,0,0,0,11.9,8.37a7,7,0,0,1,2-3.81c.67-.42,1.44.09,1,.84-.8,1.35-1.5,4.8-.6,5.1C17,11.34,19,2.91,13,3.39,10,3.66,7.69,5.58,9.73,8.25c1.53,2-.8,4.35-3.27,3.93-2-.33-3.1-2.67-2-4.86A9.59,9.59,0,0,1,13,2.25c3.07-.06,4.94.93,6,2.22,2.33,2.82.8,8.61-3.27,8.58,2,1.47,3.5,4,6.24,3.84,1.7-.09,2.1,1.05,1.66,2.1a3.32,3.32,0,0,1-3.27,1.8c-4.8-.09-4.93-5.58-7.2-7.89A13.37,13.37,0,0,1,11.83,16.35Z"/><path class="cls-2" d="M11.83,16.35c-2.44,4-9.37,3.18-9.57-.84-.1-1.71,1.16-3.24,2.93-2.4a4.41,4.41,0,0,0,3,.15,3.82,3.82,0,0,0,1.5-.84A8.83,8.83,0,0,0,11.9,8.37a7,7,0,0,1,2-3.81c.67-.42,1.44.09,1,.84-.8,1.35-1.5,4.8-.6,5.1C17,11.34,19,2.91,13,3.39,10,3.66,7.69,5.58,9.73,8.25c1.53,2-.8,4.35-3.27,3.93-2-.33-3.1-2.67-2-4.86A9.59,9.59,0,0,1,13,2.25c3.07-.06,4.94.93,6,2.22,2.33,2.82.8,8.61-3.27,8.58,2,1.47,3.5,4,6.24,3.84,1.7-.09,2.1,1.05,1.66,2.1a3.32,3.32,0,0,1-3.27,1.8c-4.8-.09-4.93-5.58-7.2-7.89A13.37,13.37,0,0,1,11.83,16.35Z"/><path class="cls-3" d="M25.22,16.38a3.51,3.51,0,0,0-3.1-1.49h-.37a3.53,3.53,0,0,1-2.29-1.19,6.86,6.86,0,0,0,1.83-2.38,7.87,7.87,0,0,0-.78-8.13C19.4,1.85,17.23.25,13.23.25h-.32A11.63,11.63,0,0,0,2.63,6.45a5.66,5.66,0,0,0-.14,4.85,3.93,3.93,0,0,0-1,.77A4.77,4.77,0,0,0,.26,15.61C.41,18.72,3.19,21,6.85,21a7.71,7.71,0,0,0,6.61-3.46c1.09,2.29,2.82,5.2,6.83,5.27h.14a5.28,5.28,0,0,0,5-3A3.56,3.56,0,0,0,25.22,16.38Z"/></g></g></svg>